<?xml version="1.0" encoding="UTF-8" standalone="no"?>
<!-- Created with Inkscape (http://www.inkscape.org/) -->

<svg
   width="1080"
   height="1080"
   viewBox="0 0 1080 1080"
   version="1.1"
   id="svg1"
   inkscape:version="1.4 (e7c3feb1, 2024-10-09)"
   xml:space="preserve"
   sodipodi:docname="AbstractLevel.svg"
   xmlns:inkscape="http://www.inkscape.org/namespaces/inkscape"
   xmlns:sodipodi="http://sodipodi.sourceforge.net/DTD/sodipodi-0.dtd"
   xmlns="http://www.w3.org/2000/svg"
   xmlns:svg="http://www.w3.org/2000/svg"><sodipodi:namedview
     id="namedview1"
     pagecolor="#505050"
     bordercolor="#ffffff"
     borderopacity="1"
     inkscape:showpageshadow="0"
     inkscape:pageopacity="0"
     inkscape:pagecheckerboard="1"
     inkscape:deskcolor="#505050"
     inkscape:document-units="px"
     inkscape:zoom="0.76684763"
     inkscape:cx="493.57915"
     inkscape:cy="492.92713"
     inkscape:window-width="1856"
     inkscape:window-height="1027"
     inkscape:window-x="79"
     inkscape:window-y="25"
     inkscape:window-maximized="0"
     inkscape:current-layer="layer1" /><defs
     id="defs1" /><g
     inkscape:label="Layer 1"
     inkscape:groupmode="layer"
     id="layer1"><rect
       style="fill:#8a95dd;fill-opacity:1;stroke-width:0.818505"
       id="rect7"
       width="450.06482"
       height="110.86156"
       x="44.675556"
       y="857.10883" /><rect
       style="fill:#8a95dd;fill-opacity:1"
       id="rect8"
       width="511.28693"
       height="129.06271"
       x="529.88165"
       y="586.61932" /><rect
       style="fill:#8a95dd;fill-opacity:1"
       id="rect9"
       width="33.093006"
       height="92.660416"
       x="150.57317"
       y="767.75769" /><path
       sodipodi:type="star"
       style="fill:#8a95dd;fill-opacity:1"
       id="path9"
       inkscape:flatsided="false"
       sodipodi:sides="3"
       sodipodi:cx="112.51622"
       sodipodi:cy="665.16937"
       sodipodi:r1="77.786163"
       sodipodi:r2="38.893082"
       sodipodi:arg1="0.52359878"
       sodipodi:arg2="1.5707963"
       inkscape:rounded="0"
       inkscape:randomized="0"
       d="m 179.88101,704.06245 -67.36479,0 -67.364794,0 33.682397,-58.33962 33.682397,-58.33962 33.6824,58.33962 z"
       inkscape:transform-center-y="-19.44654"
       transform="translate(54.603457,71.14996)" /><path
       id="rect10"
       style="fill:#8a95dd;fill-opacity:1"
       d="M 165.46484 598.96484 L 131.7832 657.30469 L 98.099609 715.64453 L 134.14648 715.64453 L 133.4375 716.87305 L 99.755859 775.21289 L 150.57227 775.21289 L 150.57227 860.41797 L 183.66602 860.41797 L 183.66602 775.21289 L 234.48438 775.21289 L 200.80273 716.87305 L 200.09375 715.64453 L 232.83008 715.64453 L 199.14648 657.30469 L 165.46484 598.96484 z " /><path
       id="path11"
       style="fill:#8a95dd;fill-opacity:1"
       d="m 913.76034,338.4033 -33.68164,58.33985 -33.68359,58.33984 h 36.04687 l -0.70898,1.22852 -33.68164,58.33984 h 50.81641 v 85.20508 h 33.09375 v -85.20508 h 50.81838 l -33.68167,-58.33984 -0.70898,-1.22852 h 32.73635 l -33.68362,-58.33984 z" /><circle
       style="fill:#8a95dd;fill-opacity:1"
       id="path12"
       cx="349.1312"
       cy="431.86371"
       r="31.438354" /><rect
       style="fill:#8a95dd;fill-opacity:1"
       id="rect12"
       width="26.474403"
       height="97.624367"
       x="330.93005"
       y="456.68347" /><rect
       style="fill:#8a95dd;fill-opacity:1;stroke-width:0.707107"
       id="rect15"
       width="28.129053"
       height="13.237202"
       x="353.12546"
       y="541.06396" /><rect
       style="fill:#8a95dd;fill-opacity:1;stroke-width:0.707107"
       id="rect16"
       width="28.129053"
       height="13.237202"
       x="622.69238"
       y="-227.71709"
       transform="rotate(75)" /><rect
       style="fill:#8a95dd;fill-opacity:1;stroke-width:0.707107"
       id="rect17"
       width="28.129053"
       height="13.237202"
       x="434.49475"
       y="-484.57574"
       transform="rotate(106.29094)" /><rect
       style="fill:#8a95dd;fill-opacity:1;stroke-width:0.707107"
       id="rect18"
       width="28.129053"
       height="13.237202"
       x="-346.93958"
       y="-571.76892"
       transform="rotate(-178.70906)" /><rect
       style="fill:#8a95dd;fill-opacity:1;stroke-width:0.706288"
       id="rect19"
       width="34.005486"
       height="10.924348"
       x="273.05435"
       y="-542.23712"
       transform="matrix(-0.3804059,0.92481963,-0.92465595,-0.38080358,0,0)" /><rect
       style="fill:#8a95dd;fill-opacity:1;stroke-width:0.707107"
       id="rect20"
       width="28.129053"
       height="13.237202"
       x="-345.03876"
       y="-519.42401"
       transform="rotate(175.53677)" /><rect
       style="fill:#8a95dd;fill-opacity:1;stroke-width:0.706288"
       id="rect21"
       width="34.005486"
       height="10.924348"
       x="-360.51657"
       y="463.84131"
       transform="matrix(0.3804059,-0.92481963,0.92465595,0.38080358,0,0)" /><rect
       style="fill:#8a95dd;fill-opacity:1;stroke-width:0.707107"
       id="rect22"
       width="28.129053"
       height="13.237202"
       x="266.72198"
       y="500.33234"
       transform="rotate(-4.46323)" /></g></svg>
