<?xml version="1.0" encoding="UTF-8" standalone="no"?>
<!-- Created with Inkscape (http://www.inkscape.org/) -->

<svg
   width="1080"
   height="1080"
   viewBox="0 0 1080 1080"
   version="1.1"
   id="svg1"
   inkscape:version="1.4 (e7c3feb1, 2024-10-09)"
   xml:space="preserve"
   sodipodi:docname="AbstractGameManager.svg"
   xmlns:inkscape="http://www.inkscape.org/namespaces/inkscape"
   xmlns:sodipodi="http://sodipodi.sourceforge.net/DTD/sodipodi-0.dtd"
   xmlns="http://www.w3.org/2000/svg"
   xmlns:svg="http://www.w3.org/2000/svg"><sodipodi:namedview
     id="namedview1"
     pagecolor="#505050"
     bordercolor="#ffffff"
     borderopacity="1"
     inkscape:showpageshadow="0"
     inkscape:pageopacity="0"
     inkscape:pagecheckerboard="1"
     inkscape:deskcolor="#505050"
     inkscape:document-units="px"
     inkscape:zoom="1.2915782"
     inkscape:cx="506.74437"
     inkscape:cy="407.25369"
     inkscape:window-width="1856"
     inkscape:window-height="1027"
     inkscape:window-x="79"
     inkscape:window-y="26"
     inkscape:window-maximized="0"
     inkscape:current-layer="layer1" /><defs
     id="defs1" /><g
     inkscape:label="Layer 1"
     inkscape:groupmode="layer"
     id="layer1"><path
       id="ellipse22"
       style="fill:#8a95dd;fill-opacity:1;stroke-width:1.6235"
       d="M 522.03668,232.51967 A 373.13571,224.62031 0 0 0 150.57932,441.71842 156.66612,217.00376 16.315603 0 0 41.62855,590.60414 a 156.66612,217.00376 16.315603 0 0 89.39607,252.27662 156.66612,217.00376 16.315603 0 0 211.31911,-164.25282 156.66612,217.00376 16.315603 0 0 5.75905,-23.2111 373.13571,224.62031 0 0 0 173.9339,26.34296 373.13571,224.62031 0 0 0 207.81098,-38.63796 217.00376,156.66612 73.684397 0 0 7.80861,35.5061 217.00376,156.66612 73.684397 0 0 211.31909,164.2528 217.00376,156.66612 73.684397 0 0 89.39614,-252.27661 217.00376,156.66612 73.684397 0 0 -146.80527,-164.483 373.13571,224.62031 0 0 0 -369.52955,-193.60146 z" /><ellipse
       style="fill:#000000;fill-opacity:1;stroke-width:1.93514"
       id="path23"
       cx="740.04626"
       cy="392.72046"
       rx="31.543676"
       ry="32.805424" /><ellipse
       style="fill:#000000;fill-opacity:1;stroke-width:1.93514"
       id="ellipse23"
       cx="800.61017"
       cy="443.19037"
       rx="31.543676"
       ry="32.805424" /><ellipse
       style="fill:#000000;fill-opacity:1;stroke-width:1.93514"
       id="ellipse24"
       cx="742.56982"
       cy="501.23071"
       rx="31.543676"
       ry="32.805424" /><ellipse
       style="fill:#000000;fill-opacity:1;stroke-width:1.93514"
       id="ellipse25"
       cx="674.43542"
       cy="445.71387"
       rx="31.543676"
       ry="32.805424" /><ellipse
       style="fill:#000000;fill-opacity:1;stroke-width:1.41021"
       id="path25"
       cx="631.14587"
       cy="572.83453"
       rx="49.652298"
       ry="50.571785" /><path
       id="rect26"
       style="fill:#000000;fill-opacity:1;stroke-width:1.49325"
       d="m 303.99423,391.44704 v 50.6304 h -50.63036 v 25.31231 h 50.63036 v 50.63028 h 25.31226 v -50.63028 h 50.63037 v -25.31231 h -50.63037 v -50.6304 z" /><path
       d="m 450.59963,279.72179 v 146.05273 h 35.20899 V 320.48155 l 10.56836,12.66797 16.89062,20.24609 0.10547,0.0879 0.0254,-0.0215 16.94531,-20.31055 10.59961,-12.70703 v 105.33008 h 35.20899 V 279.72179 h -35.16407 -0.0371 l -0.008,0.01 -27.58398,33.0625 -27.55078,-33.02148 -0.041,-0.0508 h -0.0137 z"
       id="path30" /><ellipse
       style="fill:#000000;fill-opacity:1;stroke-width:1.41021"
       id="ellipse30"
       cx="411.25986"
       cy="572.83453"
       rx="49.652298"
       ry="50.571785" /></g></svg>
