<?xml version="1.0" encoding="UTF-8" standalone="no"?>
<!-- Created with Inkscape (http://www.inkscape.org/) -->

<svg
   width="1080"
   height="1080"
   viewBox="0 0 1080 1080"
   version="1.1"
   id="svg1"
   inkscape:version="1.4.2 (ebf0e940, 2025-05-08)"
   xml:space="preserve"
   sodipodi:docname="icon.svg"
   inkscape:export-filename="icon.png"
   inkscape:export-xdpi="96"
   inkscape:export-ydpi="96"
   xmlns:inkscape="http://www.inkscape.org/namespaces/inkscape"
   xmlns:sodipodi="http://sodipodi.sourceforge.net/DTD/sodipodi-0.dtd"
   xmlns="http://www.w3.org/2000/svg"
   xmlns:svg="http://www.w3.org/2000/svg"><sodipodi:namedview
     id="namedview1"
     pagecolor="#505050"
     bordercolor="#ffffff"
     borderopacity="1"
     inkscape:showpageshadow="0"
     inkscape:pageopacity="0"
     inkscape:pagecheckerboard="1"
     inkscape:deskcolor="#505050"
     inkscape:document-units="px"
     inkscape:zoom="0.4171846"
     inkscape:cx="925.24988"
     inkscape:cy="556.10873"
     inkscape:window-width="1856"
     inkscape:window-height="1027"
     inkscape:window-x="72"
     inkscape:window-y="25"
     inkscape:window-maximized="0"
     inkscape:current-layer="layer1"
     inkscape:export-bgcolor="#474747ff" /><defs
     id="defs1" /><g
     inkscape:label="Layer 1"
     inkscape:groupmode="layer"
     id="layer1"><g
       id="g2"
       transform="matrix(0.6554479,0,0,0.6554479,19.555077,16.109903)"><text
         xml:space="preserve"
         style="font-style:normal;font-variant:normal;font-weight:normal;font-stretch:normal;font-size:166.667px;font-family:'Press Start 2P';-inkscape-font-specification:'Press Start 2P';text-align:center;writing-mode:lr-tb;direction:ltr;text-anchor:middle;fill:#d53707;fill-opacity:1;stroke:#000000;stroke-width:7;stroke-linecap:butt;stroke-linejoin:miter;stroke-dasharray:none;stroke-opacity:1;paint-order:fill markers stroke"
         x="726.9231"
         y="216.92308"
         id="text1"
         inkscape:label="Brenny's"><tspan
           sodipodi:role="line"
           id="tspan1"
           x="726.9231"
           y="216.92308"
           style="font-size:166.667px;fill:#d53707;fill-opacity:1;stroke:#000000;stroke-width:7;stroke-linecap:butt;stroke-linejoin:miter;stroke-dasharray:none;stroke-opacity:1;paint-order:fill markers stroke">Brenny's</tspan></text><text
         xml:space="preserve"
         style="font-style:normal;font-variant:normal;font-weight:normal;font-stretch:normal;font-size:166.667px;font-family:'Press Start 2P';-inkscape-font-specification:'Press Start 2P';text-align:center;writing-mode:lr-tb;direction:ltr;text-anchor:middle;fill:#d53707;fill-opacity:1;stroke:#000000;stroke-width:7;stroke-linecap:butt;stroke-linejoin:miter;stroke-dasharray:none;stroke-opacity:1;paint-order:fill markers stroke"
         x="903.00775"
         y="555.97516"
         id="text4"
         inkscape:label="Manager"><tspan
           sodipodi:role="line"
           id="tspan4"
           x="903.00775"
           y="555.97516"
           style="font-size:166.667px;fill:#d53707;fill-opacity:1;stroke:#000000;stroke-width:7;stroke-linecap:butt;stroke-linejoin:miter;stroke-dasharray:none;stroke-opacity:1;paint-order:fill markers stroke">Manager</tspan></text><text
         xml:space="preserve"
         style="font-style:normal;font-variant:normal;font-weight:normal;font-stretch:normal;font-size:166.667px;font-family:'Press Start 2P';-inkscape-font-specification:'Press Start 2P';text-align:center;writing-mode:lr-tb;direction:ltr;text-anchor:middle;fill:#d53707;fill-opacity:1;stroke:#000000;stroke-width:7;stroke-linecap:butt;stroke-linejoin:miter;stroke-dasharray:none;stroke-opacity:1;paint-order:fill markers stroke"
         x="513.67755"
         y="384.88074"
         id="text5"
         inkscape:label="Game"><tspan
           sodipodi:role="line"
           id="tspan5"
           x="513.67755"
           y="384.88074"
           style="font-size:166.667px;fill:#d53707;fill-opacity:1;stroke:#000000;stroke-width:7;stroke-linecap:butt;stroke-linejoin:miter;stroke-dasharray:none;stroke-opacity:1;paint-order:fill markers stroke">Game</tspan></text></g><g
       id="g1"
       transform="matrix(0.50170504,0,0,0.50170504,30.930766,284.58844)"><path
         id="ellipse22"
         style="fill:#8a95dd;fill-opacity:1;stroke-width:1.6235"
         d="M 522.03668,232.51967 A 373.13571,224.62031 0 0 0 150.57932,441.71842 156.66612,217.00376 16.315603 0 0 41.62855,590.60414 a 156.66612,217.00376 16.315603 0 0 89.39607,252.27662 156.66612,217.00376 16.315603 0 0 211.31911,-164.25282 156.66612,217.00376 16.315603 0 0 5.75905,-23.2111 373.13571,224.62031 0 0 0 173.9339,26.34296 373.13571,224.62031 0 0 0 207.81098,-38.63796 217.00376,156.66612 73.684397 0 0 7.80861,35.5061 217.00376,156.66612 73.684397 0 0 211.31909,164.2528 217.00376,156.66612 73.684397 0 0 89.39614,-252.27661 217.00376,156.66612 73.684397 0 0 -146.80527,-164.483 373.13571,224.62031 0 0 0 -369.52955,-193.60146 z" /><ellipse
         style="fill:#000000;fill-opacity:1;stroke-width:1.93514"
         id="path23"
         cx="740.04626"
         cy="392.72046"
         rx="31.543676"
         ry="32.805424" /><ellipse
         style="fill:#000000;fill-opacity:1;stroke-width:1.93514"
         id="ellipse23"
         cx="800.61017"
         cy="443.19037"
         rx="31.543676"
         ry="32.805424" /><ellipse
         style="fill:#000000;fill-opacity:1;stroke-width:1.93514"
         id="ellipse24"
         cx="742.56982"
         cy="501.23071"
         rx="31.543676"
         ry="32.805424" /><ellipse
         style="fill:#000000;fill-opacity:1;stroke-width:1.93514"
         id="ellipse25"
         cx="674.43542"
         cy="445.71387"
         rx="31.543676"
         ry="32.805424" /><ellipse
         style="fill:#000000;fill-opacity:1;stroke-width:1.41021"
         id="path25"
         cx="631.14587"
         cy="572.83453"
         rx="49.652298"
         ry="50.571785" /><path
         id="rect26"
         style="fill:#000000;fill-opacity:1;stroke-width:1.49325"
         d="m 303.99423,391.44704 v 50.6304 h -50.63036 v 25.31231 h 50.63036 v 50.63028 h 25.31226 v -50.63028 h 50.63037 v -25.31231 h -50.63037 v -50.6304 z" /><path
         d="m 450.59963,279.72179 v 146.05273 h 35.20899 V 320.48155 l 10.56836,12.66797 16.89062,20.24609 0.10547,0.0879 0.0254,-0.0215 16.94531,-20.31055 10.59961,-12.70703 v 105.33008 h 35.20899 V 279.72179 h -35.16407 -0.0371 l -0.008,0.01 -27.58398,33.0625 -27.55078,-33.02148 -0.041,-0.0508 h -0.0137 z"
         id="path30" /><ellipse
         style="fill:#000000;fill-opacity:1;stroke-width:1.41021"
         id="ellipse30"
         cx="411.25986"
         cy="572.83453"
         rx="49.652298"
         ry="50.571785" /></g><g
       id="layer1-9"
       transform="matrix(32.976818,0,0,32.976818,33.255807,640.1673)"><rect
         style="fill:#8a95dd;fill-opacity:1;stroke-width:0.0127529"
         id="rect7"
         width="7.0123248"
         height="1.7273006"
         x="0.38195586"
         y="11.085642" /><rect
         style="fill:#8a95dd;fill-opacity:1;stroke-width:0.0155807"
         id="rect8"
         width="7.966208"
         height="2.0108874"
         x="7.9418063"
         y="6.8712263" /><rect
         style="fill:#8a95dd;fill-opacity:1;stroke-width:0.0155807"
         id="rect9"
         width="0.51561219"
         height="1.4437141"
         x="2.0319147"
         y="9.6934891" /><path
         style="fill:#8a95dd;fill-opacity:1"
         id="path9"
         d="M 179.88101,704.06245 H 112.51622 45.151426 l 33.682397,-58.33962 33.682397,-58.33962 33.6824,58.33962 z"
         transform="matrix(0.0155807,0,0,0.0155807,0.53663951,-1.1601471)" /><path
         id="rect10"
         style="fill:#8a95dd;fill-opacity:1;stroke-width:0.0155807"
         d="M 2.2639375,7.0635782 1.7391539,7.9725539 1.21434,8.8815294 H 1.7759755 L 1.7649291,8.9006706 1.2401455,9.8096462 H 2.0319008 V 11.137201 H 2.5475246 V 9.8096462 H 3.3393102 L 2.8145265,8.9006706 2.8034801,8.8815294 h 0.510055 L 2.788721,7.9725539 Z" /><path
         id="path11"
         style="fill:#8a95dd;fill-opacity:1;stroke-width:0.0155807"
         d="m 13.922905,3.003847 -0.524783,0.9089757 -0.524814,0.9089755 h 0.561635 l -0.01105,0.019141 -0.524784,0.9089756 h 0.791755 v 1.3275548 h 0.515624 V 5.749915 h 0.791786 L 14.47349,4.8409394 14.46244,4.8217984 h 0.510055 L 14.447689,3.9128227 Z" /><g
         id="g8"
         transform="matrix(0.00195476,0,0,0.00195476,4.7796625,3.8486319)"><circle
           style="fill:#8a95dd;fill-opacity:1;stroke-width:6.5111"
           id="circle5"
           cx="538.46747"
           cy="245.97734"
           r="204.69838" /><rect
           style="fill:#8a95dd;fill-opacity:1;stroke-width:5.92886"
           id="rect5"
           width="172.37758"
           height="527.04443"
           x="452.27609"
           y="318.69089" /><path
           d="m 460.27198,797.13748 -100.10409,166.79368 -180.86328,-3.22345 -2.45557,86.16769 231.19834,4.1183 0.29134,0.179 125.26539,-208.71534 z"
           style="fill:#8a95dd;stroke-width:5.30829"
           id="path5" /><path
           d="m 461.57169,443.61608 -277.35268,14.25272 0.0125,0.11237 -0.0437,-0.0229 -121.586184,233.29807 63.172704,32.69032 94.58323,-181.48549 251.40269,-12.91881 z"
           style="fill:#8a95dd;stroke-width:5.68058"
           id="path6" /><path
           d="m 618.42831,531.9138 277.35268,-14.25272 -0.0125,-0.11238 0.0437,0.0229 121.58621,-233.29806 -63.17273,-32.69032 -94.58323,181.48549 -251.40269,12.9188 z"
           style="fill:#8a95dd;stroke-width:5.68058"
           id="path7" /><path
           d="m 842.73445,1062.9131 -63.61789,-183.83078 -177.65192,-34.08387 15.33826,-84.82712 227.09277,43.57182 0.32196,-0.11517 79.60878,230.03462 z"
           style="fill:#8a95dd;stroke-width:5.30829"
           id="path8" /></g></g><g
       id="layer1-4"
       transform="matrix(19.246835,0,0,19.246835,679.75348,754.75777)"><path
         id="rect6"
         style="fill:#a5efac;fill-opacity:1;stroke:#a5efac;stroke-width:0.0148461;stroke-opacity:1"
         d="M 0.00755729,0.00428526 V 15.99207 H 15.995371 V 0.00428526 Z M 0.4528545,0.48884355 H 15.438988 V 15.474977 H 0.4528545 Z" /><rect
         style="fill:#a5efac;fill-opacity:1;stroke:#a5efac;stroke-width:0.0261919;stroke-opacity:1"
         id="rect3"
         width="11.511752"
         height="0.98461467"
         x="2.2441239"
         y="7.3753443" /><rect
         style="fill:#a5efac;fill-opacity:1;stroke:#a5efac;stroke-width:0.0261919;stroke-opacity:1"
         id="rect1"
         width="11.511752"
         height="0.98461467"
         x="2.2441239"
         y="11.969744" /><rect
         style="fill:#a5efac;fill-opacity:1;stroke:#a5efac;stroke-width:0.0261919;stroke-opacity:1"
         id="rect2"
         width="11.511752"
         height="0.98461467"
         x="2.2441239"
         y="2.7809446" /></g><g
       id="layer1-3"
       transform="matrix(0.31616015,0,0,0.31616015,659.96392,373.72283)"><circle
         style="fill:#8a95dd;fill-opacity:1;stroke-width:6.5111"
         id="path12-5"
         cx="538.46747"
         cy="245.97734"
         r="204.69838" /><rect
         style="fill:#8a95dd;fill-opacity:1;stroke-width:5.92886"
         id="rect12-2"
         width="172.37758"
         height="527.04443"
         x="452.27609"
         y="318.69089" /><path
         d="m 460.27198,797.13748 -100.10409,166.79368 -180.86328,-3.22345 -2.45557,86.16769 231.19834,4.1183 0.29134,0.179 125.26539,-208.71534 z"
         style="fill:#8a95dd;stroke-width:5.30829"
         id="path3" /><path
         d="m 461.57169,443.61608 -277.35268,14.25272 0.0125,0.11237 -0.0437,-0.0229 -121.586184,233.29807 63.172704,32.69032 94.58323,-181.48549 251.40269,-12.91881 z"
         style="fill:#8a95dd;stroke-width:5.68058"
         id="path1" /><path
         d="m 618.42831,531.9138 277.35268,-14.25272 -0.0125,-0.11238 0.0437,0.0229 121.58621,-233.29806 -63.17273,-32.69032 -94.58323,181.48549 -251.40269,12.9188 z"
         style="fill:#8a95dd;stroke-width:5.68058"
         id="path2" /><path
         d="m 842.73445,1062.9131 -63.61789,-183.83078 -177.65192,-34.08387 15.33826,-84.82712 227.09277,43.57182 0.32196,-0.11517 79.60878,230.03462 z"
         style="fill:#8a95dd;stroke-width:5.30829"
         id="path4" /></g></g></svg>
